<?xml version="1.0" encoding="UTF-8"?>
<svg id="Layer_2" data-name="Layer 2" xmlns="http://www.w3.org/2000/svg" xmlns:xlink="http://www.w3.org/1999/xlink" viewBox="0 0 264.87 147.06">
  <defs>
    <style>
      .cls-1 {
        fill: #78c9d8;
      }

      .cls-2 {
        fill: #b3d5ec;
      }

      .cls-3 {
        fill: #90bce0;
      }

      .cls-4 {
        fill: #325da8;
      }

      .cls-5 {
        fill: #98c2e3;
      }

      .cls-6 {
        fill: #a3cae8;
      }

      .cls-7 {
        font-family: WorkSans-LightItalic, 'Work Sans';
        font-size: 13.47px;
        font-style: italic;
        font-weight: 300;
      }

      .cls-7, .cls-8 {
        fill: #2f4a9c;
      }

      .cls-9 {
        fill: #bfd8ec;
      }

      .cls-10 {
        fill: #badaed;
      }

      .cls-11 {
        fill: #283a72;
      }

      .cls-12 {
        fill: #c2e3ed;
      }

      .cls-13 {
        fill: #81b0dd;
      }

      .cls-14 {
        fill: #70a1d5;
      }

      .cls-15 {
        fill: #c9e3f0;
      }

      .cls-16 {
        fill: #5d8ac9;
      }

      .cls-17 {
        fill: #9ac4e5;
      }

      .cls-18 {
        fill: #d4eaf3;
      }

      .cls-19 {
        font-family: OscanExpanded, 'Oscan Expanded';
        font-size: 30.08px;
      }

      .cls-20 {
        fill: url(#linear-gradient);
      }

      .cls-21 {
        fill: #6597d0;
      }

      .cls-22 {
        fill: #4777ba;
      }

      .cls-23 {
        fill: #2d5186;
      }

      .cls-24 {
        fill: #b0d3ea;
      }
    </style>
    <linearGradient id="linear-gradient" x1="63.28" y1="122.61" x2="63.28" y2="60.15" gradientUnits="userSpaceOnUse">
      <stop offset="0" stop-color="#bfd8ec"/>
      <stop offset=".34" stop-color="#bcd6eb"/>
      <stop offset=".52" stop-color="#b4d0e8"/>
      <stop offset=".67" stop-color="#a6c6e4"/>
      <stop offset=".81" stop-color="#93b8de"/>
      <stop offset=".92" stop-color="#7aa6d6"/>
      <stop offset="1" stop-color="#6597d0"/>
    </linearGradient>
  </defs>
  <g id="Layer_1-2" data-name="Layer 1">
    <g>
      <g>
        <path class="cls-17" d="m87.57,12.95c-1.89,1.61-4,2.84-6.33,3.7-.37-.95-1.02-1.56-1.96-1.83-.68-.19-1.02-.29-1.05-.3-7.49-2.69-14.52-1.65-21.11,3.11-.88.64-1.41,1.3-1.58,1.98-3.17-.39-6.32-.94-9.44-1.64-1.41-.32-2.11.06-2.08,1.13,0,.13.1.75.3,1.85.51,2.83,1.42,5.54,2.73,8.12-.11.44-.32.83-.62,1.17-.11.12-.18.27-.2.42-.22,1.69-.21,3.38.04,5.06.13.87.21,1.62.23,2.25.03.75.09,1.51.16,2.26,0,.05-.02.34-.07.85-.03.29.05.59.23.88-3.02-1.68-5.73-4.05-8.15-7.12-1.7-2.16-2.84-4.36-3.42-6.6.31.16.61.18.93.07.13-.05.21-.18.21-.33-.03-.91.16-1.76.55-2.55.43-.85.7-1.49.82-1.92.99-3.56,2.73-6.71,5.23-9.44.23-.25.51-.62.86-1.1.28-.39.59-.74.93-1.06.82-.76,1.32-1.24,1.5-1.43,2.37-2.63,5.22-4.75,8.54-6.35,1.9-.92,3.25-1.57,4.06-1.94.03-.02.47-.15,1.31-.41.47-.14.86-.42,1.18-.83.16-.2.2-.38.13-.54-.08-.2-.27-.32-.59-.35,11.3-.45,20.18,3.86,26.65,12.92Z"/>
        <path class="cls-2" d="m60.91.03c.32.04.51.16.59.35.07.16.02.34-.13.54-.31.41-.7.69-1.18.83-.85.25-1.29.39-1.31.41-.8.38-2.15,1.02-4.06,1.94-3.32,1.61-6.17,3.72-8.54,6.35-.18.19-.68.67-1.5,1.43-.34.32-.65.68-.93,1.06-.35.49-.63.86-.86,1.1-2.49,2.73-4.24,5.88-5.23,9.44-.12.43-.39,1.07-.82,1.92-.39.79-.58,1.64-.55,2.55,0,.15-.08.29-.21.33-.31.11-.62.09-.93-.07-1.57-6.08-.67-11.66,2.7-16.75,1.97-2.98,4.58-5.42,7.83-7.34C50.44,1.41,55.48.03,60.91.03Z"/>
        <path class="cls-11" d="m87.57,12.95c.31.28.59.59.84.92.19.26.33.64.4,1.12.07.47.2.93.37,1.38.23.6.37,1.04.43,1.33.51,2.66.57,5.33.2,8.03-1.07-.53-2.17-.62-3.32-.28-.06.02-.1.08-.12.17,0,.06-.04.09-.11.11l-2.14-2.45c-.09-.11-.12-.27-.07-.41.57-1.61,1.18-3.2,1.85-4.77.05-.13.07-.25.06-.36-.04-.36-.22-.32-.55.11-.86,1.14-1.47,2.46-1.84,3.97-.16.65-.45.72-.86.21l-.65-.81c-.15-.18-.4-.23-.6-.12-1.04.58-1.21,1.09-.5,1.53.39.24.83.72,1.33,1.44.08.13.11.29.06.43-.58,1.79-1.22,3.55-1.93,5.29-.08.2-.05.36.1.47-1.84-.32-3.52-.17-5.02.46-.69.29-1.25.4-1.67.34,1.23-2.34,1.51-4.64.84-6.91-.52-1.75-1.47-2.4-2.87-1.94-.88.29-1.59.9-2.14,1.82-.65,1.1-.98,2.33-.98,3.7-.15.77-.67,1.24-1.56,1.4-2.09.39-3.4.6-3.91.64-2.58.19-5.02.56-7.32,1.11-.5.12-1,.14-1.51.08-1.92-.25-3.64.19-5.15,1.33-.86-.99-1.58-2.07-2.17-3.24-1.31-2.58-2.22-5.29-2.73-8.12-.2-1.1-.3-1.72-.3-1.85-.02-1.07.67-1.44,2.08-1.13,3.12.7,6.27,1.25,9.44,1.64,6.18.56,12.19.33,18.03-.7,2.48-.44,5.04-1.19,7.66-2.27,2.33-.86,4.44-2.09,6.33-3.7Z"/>
        <path class="cls-24" d="m81.24,16.65c-2.62,1.08-5.18,1.83-7.66,2.27-5.84,1.03-11.86,1.26-18.03.7.17-.68.7-1.34,1.58-1.98,6.58-4.76,13.62-5.8,21.11-3.11.02,0,.37.11,1.05.3.94.27,1.6.88,1.96,1.83Z"/>
        <path class="cls-1" d="m86.25,25.73c-.3.48-.71.75-1.21.82-.11.01-.26-.05-.39-.18l-1.21-1.21c-.07-.07-.18-.06-.26.02-.02.02-.03.03-.04.05-.53,1.09-.98,2.21-1.36,3.36-.24.72-.66,1.29-1.29,1.7-.15-.11-.18-.26-.1-.47.71-1.74,1.36-3.5,1.93-5.29.05-.14.02-.3-.06-.43-.5-.72-.94-1.2-1.33-1.44-.71-.44-.54-.95.5-1.53.2-.11.45-.06.6.12l.65.81c.41.51.7.44.86-.21.37-1.51.98-2.83,1.84-3.97.33-.43.51-.47.55-.11.01.11,0,.23-.06.36-.67,1.57-1.28,3.16-1.85,4.77-.05.14-.02.29.07.41l2.14,2.45Z"/>
        <path class="cls-1" d="m73.81,31.08c-.63.9-1.39,1.43-2.27,1.57-1.13.18-1.91-.3-2.35-1.45-.42-1.11-.6-2.26-.54-3.45,0-1.37.33-2.6.98-3.7.55-.92,1.26-1.53,2.14-1.82,1.39-.46,2.35.19,2.87,1.94.67,2.26.39,4.57-.84,6.91Zm-1.88-7.79c-1.05.27-1.67.97-1.86,2.1-.02.1-.08.41-.18.96-.17.87.26,1.1,1.29.69.22-.09.77-.22,1.65-.4.32-.07.55-.17.68-.31.21-.22.28-.49.23-.8-.09-.52-.14-.82-.14-.88-.04-.48-.23-.86-.56-1.14-.3-.25-.67-.33-1.11-.21Zm-.84,8.32c1.05.05,1.76-.4,2.12-1.34.37-.97.5-1.81.4-2.51-.02-.13-.13-.22-.25-.2,0,0-.02,0-.03,0l-3.27.86c-.14.04-.24.18-.21.32l.46,2.27c.07.33.39.58.78.6Z"/>
        <path class="cls-11" d="m73.04,23.51c.33.28.52.66.56,1.14,0,.07.05.36.14.88.05.31-.02.58-.23.8-.13.14-.36.24-.68.31-.88.18-1.43.31-1.65.4-1.04.41-1.47.18-1.29-.69.11-.54.17-.86.18-.96.19-1.13.81-1.83,1.86-2.1.44-.11.81-.04,1.11.21Z"/>
        <path class="cls-12" d="m128.04,43.66c-3.63.11-6.19-1.43-7.67-4.65-.09-.19-.2-.28-.33-.29l-.5-1.18c.52-4.38,1.6-8.61,3.24-12.69.23-.57.49-.96.76-1.15.5-.34.99-.21,1.48.39.09.12.15.27.16.43.13,2.3-.11,4.57-.71,6.8-.11.41-.16.74-.14.98.03.36.12.69.28.98.09.16.29.22.45.13,0,0,0,0,0,0,1.79-1.02,3.33-2.21,4.61-3.56,1.45-1.53,2.98-2.97,4.59-4.32.5-.42.96-.59,1.39-.52.39.07.73.27,1.02.59.19.23.36.56.49,1.01.92,3.21.75,6.38-.52,9.51-.79,1.94-2.02,3.52-3.71,4.75-.61.44-2.24,1.36-4.9,2.77Z"/>
        <path class="cls-8" d="m86.25,25.73c.06-.02.1-.05.11-.11.02-.09.06-.15.12-.17,1.15-.35,2.25-.25,3.32.28-.01,1.39-.4,2.67-1.16,3.82-.21-.18-.43-.14-.64.09-1.18,1.28-2.65,2.35-4.43,3.19-5.76,2.72-11.84,4.13-18.23,4.24-3.86.06-6.33.06-7.4-.02-3.57-.39-6.48-1.97-8.72-4.74,1.51-1.14,3.22-1.58,5.15-1.33.51.07,1.01.04,1.51-.08,2.3-.55,4.74-.92,7.32-1.11.52-.04,1.82-.25,3.91-.64.89-.17,1.41-.63,1.56-1.4-.06,1.19.12,2.34.54,3.45.44,1.15,1.22,1.63,2.35,1.45.88-.14,1.64-.67,2.27-1.57.43.06.98-.05,1.67-.34,1.5-.63,3.17-.78,5.02-.46.62-.41,1.05-.98,1.29-1.7.37-1.15.82-2.27,1.36-3.36.05-.1.16-.14.25-.11.02,0,.04.02.05.03l1.21,1.21c.13.13.27.2.39.18.51-.07.91-.34,1.21-.82Z"/>
        <path class="cls-23" d="m71.1,31.61c-.39-.02-.71-.27-.78-.6l-.46-2.27c-.03-.14.06-.29.21-.32l3.27-.86c.12-.03.24.04.27.17,0,0,0,.02,0,.03.1.7-.03,1.54-.4,2.51-.36.95-1.07,1.39-2.12,1.34Z"/>
        <path class="cls-24" d="m47.04,29.07c.59,1.18,1.31,2.26,2.17,3.24,2.24,2.76,5.15,4.34,8.72,4.74-.56-.14-.82.22-.76,1.09,0,.16.06.32.14.46.69,1.22,1.48,2.24,2.36,3.07.01.01.03.01.04,0,0,0,0,0,0-.01v-.04s.06-.05.09-.04c0,0,.01,0,.02.01.76.74,1.38,1.58,1.85,2.53.06.12.17.24.31.34.36.27.39.56.08.86-.05.05-.14.09-.23.11-.24.04-.22.11.04.23-5.13,0-9.99-1.14-14.57-3.43l-.48-.28c-.18-.29-.26-.59-.23-.88.05-.51.07-.79.07-.85-.08-.75-.13-1.51-.16-2.26-.03-.63-.11-1.38-.23-2.25-.25-1.68-.26-3.36-.04-5.06.02-.15.09-.29.2-.42.3-.34.51-.73.62-1.17Z"/>
        <path class="cls-15" d="m88.64,29.55c-1.44,3.3-3.43,6.21-5.99,8.74-.46.05-.86.22-1.19.51-.36.32-.55.48-.58.51-.79.57-1.55,1.18-2.28,1.82-4.45,2.77-9.31,4.26-14.57,4.46l-2.15.08c-.26-.12-.28-.2-.04-.23.1-.02.18-.05.23-.11.31-.3.28-.58-.08-.86-.14-.11-.25-.22-.31-.34-.47-.94-1.09-1.79-1.85-2.53-.03-.02-.06-.02-.09,0,0,0,0,.01-.01.02v.04s-.03.03-.05.02c0,0,0,0-.01,0-.88-.83-1.66-1.85-2.36-3.07-.08-.14-.13-.3-.14-.46-.05-.87.2-1.23.76-1.09,1.07.08,3.54.08,7.4.02,6.39-.11,12.47-1.52,18.23-4.24,1.78-.84,3.26-1.91,4.43-3.19.22-.24.43-.27.64-.09Z"/>
        <path class="cls-12" d="m10.41,43.05c-.08.04-.16.05-.24.05-.11-.01-.24-.12-.32-.29-.54-1.1-1.47-1.65-2.78-1.67-.9-1.77-1.45-2.89-1.66-3.37-.57-1.31-.75-2.74-.55-4.29.03-.27.1-.49.2-.66.27-.46.57-.35.88.32,1.53,3.29,3.02,6.59,4.48,9.91Z"/>
        <path class="cls-21" d="m119.54,37.55l.5,1.18c-.45.82-.66,1.7-.62,2.65-.56-.47-1.03-.47-1.42,0-.1.13-.22.22-.36.28l-1.52.66-.38-.26,3.8-4.52Z"/>
        <path class="cls-6" d="m82.65,38.29c.03.21.14.35.36.44-.48.18-.79.51-.94,1-.45,1.45-.82,2.91-1.11,4.4l-2.37-3c.73-.64,1.49-1.25,2.28-1.82.03-.02.23-.19.58-.51.33-.29.73-.46,1.19-.51Z"/>
        <path class="cls-10" d="m83.01,38.73c1.97.64,3.53,1.84,4.68,3.6-.24.28-.41.21-.53-.21-.14-.51-.46-.49-.96.06-.32.35-.51.76-.58,1.22-.3,2.03-.86,3.98-1.68,5.85l-2.99-5.14c.29-1.48.66-2.95,1.11-4.4.15-.48.46-.82.94-1Z"/>
        <path class="cls-3" d="m120.03,38.73c.13,0,.24.1.33.29,1.48,3.21,4.04,4.76,7.67,4.65l-2.75,1.55c-1.98.33-3.61-.24-4.9-1.71-.51-.63-.84-1.34-.97-2.13-.04-.95.16-1.83.62-2.65Z"/>
        <path class="cls-22" d="m119.42,41.37c.14.79.46,1.5.97,2.13-.48-.16-.92-.16-1.3,0-.46.18-.7.27-.71.28-.61.17-1.22.37-1.81.61-.35-.64-.51-1.32-.46-2.05l1.52-.66c.14-.06.26-.15.36-.28.39-.48.87-.48,1.42,0Z"/>
        <path class="cls-3" d="m7.07,41.14c1.32.01,2.24.57,2.78,1.67.08.17.21.28.32.29.08,0,.16,0,.24-.05,1.09,1.87,1.87,3.86,2.35,5.97-.37.17-.64.11-.84-.18-.2-.3-.31-.46-.33-.48-.59-.63-1.18-1.26-1.78-1.88-.11-.12-.25-.2-.4-.24-.96-.25-1.93-.47-2.9-.65-.13-.03-.24-.07-.34-.13-.48-.3-.31-.41.51-.33.55.05.74-.13.58-.55-.05-.14-.06-.3-.01-.43.12-.37.09-.73-.09-1.07.18-.65.14-1.29-.1-1.93Z"/>
        <path class="cls-13" d="m78.59,41.12l2.37,3,2.99,5.14c.78,1.97,1.38,4.01,1.79,6.09-.22.16-.37.08-.46-.24-.32-1.18-.57-2.12-.76-2.84-.29-1.13-.64-2.04-1.03-2.73-.87-1.51-1.92-2.9-3.15-4.15-.11-.12-.19-.1-.21.06-.11.54-.13,1.07-.06,1.6.13.99.19,1.59.18,1.8-.21,4.8-2.16,8.75-5.85,11.85-4.87,4.09-10.32,5.1-16.36,3.05-.24-.08-.58-.26-1.01-.54-.37-.24-.73-.38-1.09-.43-.72-.09-1.07.26-1.05,1.06l.07,2.82c0,.11-.12.21-.28.23l-2.93.4c.02-.22-.06-.37-.26-.46l2.55-.25c.25-.03.44-.2.49-.43.23-1.31.25-2.48.05-3.51l-.08-2.51-.12-1.55c.1-.5.1-.93-.02-1.31-.09-.29-.07-.52.05-.69.03-.05.11-.06.16-.02,0,0,.02.01.02.02.16.19.22.11.18-.26-.11-.95-.23-1.89-.37-2.83,0-.05-.02-.1-.04-.16-.15-.37-.06-.37.25-.01.06.07.1.18.1.29-.02.83.3,1.45.95,1.86.61.38.91.57.92.58,3.22,2.41,6.7,2.96,10.46,1.64,1-.35,1.76-.66,2.28-.94.74-.39,1.4-.9,1.98-1.53,1.65-1.78,2.74-3.85,3.28-6.21.02-.1-.03-.21-.14-.29-.06-.05-.11-.11-.13-.18-.03-.09-.06-.09-.1,0-.29.62-.82.86-1.58.71,1.79-1.34,2.79-3.21,3.01-5.59.02-.22-.15-.41-.39-.42-.06,0-.12,0-.17.02l-5.2,1.73-5.02.72c-.29.03-.57-.01-.84-.12,5.26-.2,10.12-1.69,14.57-4.46Z"/>
        <path class="cls-18" d="m87.69,42.33c.22.33.49.6.82.82-.23.1-.34.27-.34.5-.12,4.25-.85,8.39-2.19,12.42-.32-.13-.4-.37-.24-.72-.41-2.09-1.01-4.12-1.79-6.09.82-1.88,1.38-3.83,1.68-5.85.07-.46.26-.87.58-1.22.49-.55.81-.57.96-.06.11.42.29.49.53.21Z"/>
        <path class="cls-9" d="m115.73,42.07l.38.26c-.05.73.11,1.41.46,2.05.9,2.43,2.61,3.64,5.12,3.62.38,0,.93-.11,1.67-.31.55-.15,1.12-.26,1.69-.32-4.05,4.44-8.86,8.34-14.42,11.71-2.03,1.23-4.27,2.9-6.72,5.01-.31.06-.52,0-.62-.18-.1-.18-.2-.3-.27-.35-3.31-2.01-6.65-3.97-10-5.9-.79-.46-1.34-.71-1.64-.76,1.12-2.4,1.56-4.7,1.31-6.91-.14-1.25-.73-2.52-1.77-3.82l-2.75-2.51c0-.23.11-.39.34-.5l10.74,10.04c.11.1.26.12.38.04,4.4-2.94,8.76-5.86,13.1-8.77.7-.47,1.71-1.27,3.01-2.38Z"/>
        <path class="cls-3" d="m47.3,42.23c4.58,2.28,9.44,3.43,14.57,3.43l2.15-.08c.26.11.54.15.84.12l-5.02.2c-3.71-.35-7.29-1.22-10.73-2.61-.1-.04-.21,0-.25.1,0,.01,0,.03-.01.04-.15.97.02,1.87.49,2.7-.18-.08-.34-.11-.5-.07-.13.03-.23.16-.26.33-.17,1.19,0,2.35.5,3.46-1.61-1.06-3.33-1.91-5.15-2.56-.35-.12-.74-.19-1.17-.19-.4,0-.8,0-1.19-.02.39-.12.88-.14,1.47-.07.33.04.65-.09.86-.34,1.25-1.49,2.4-2.84,3.45-4.07.11-.12.09-.25-.05-.39Z"/>
        <path class="cls-12" d="m7.17,43.07c.18.35.2.71.09,1.07-.04.14-.04.29.01.43.16.42-.04.6-.58.55-.82-.07-.99.04-.51.33.1.06.21.1.34.13.97.18,1.94.39,2.9.65.15.04.29.12.4.24.6.62,1.2,1.24,1.78,1.88.02.03.13.19.33.48.19.29.47.35.84.18.32,1.36.32,2.71.02,4.04-.05.24-.31.84-.77,1.79-.29.6-.46,1.25-.52,1.93-.35.67-.49,1.39-.41,2.15.02.17-.01.33-.09.44-.32.49-.76.85-1.31,1.09-1.12.68-2.26.79-3.4.34-.22-.08-.51-.3-.88-.66-.28-.26-.59-.47-.95-.62-.42-.69-1.17-1.69-2.26-3.01-1.08-1.32-1.72-2.98-1.92-4.99h.31c.13,0,.27.08.39.22.81,1.03,1.93,1.99,3.35,2.88.35.22.82.14,1.07-.19,1.03-1.32,2.21-2.51,3.54-3.57.12-.1.2-.23.22-.38.24-1.77-.49-2.69-2.19-2.75-.12,0-.22.1-.22.23,0,0,0,0,0,0l-.02,1.77c0,.15-.07.3-.19.4-.42.36-.76.26-1.02-.29-.21-.44-.6-1.55-1.15-3.33-.03-.1-.08-.18-.13-.24-.24-.26-.3-.12-.17.44.33,1.38.45,2.78.38,4.19-.02.31-.14.37-.38.17-.4-.34-.73-.74-.97-1.19-.72-1.38-.92-1.33-.6.15.03.13.02.25-.03.34-.05.11-.13.21-.21.29-.1.09-.26.08-.37-.02-.76-.7-1.27-1.56-1.51-2.59.28-.75.72-1.39,1.31-1.93,1.26-1.15,2.56-2.24,3.92-3.27.14-.1.29-.16.43-.16.41,0,.79.13,1.16.36Z"/>
        <path class="cls-6" d="m59.84,45.89c-.3-.03-.49.06-.56.26-.08.21-.14.35-.2.41-.83.87-1.37,1.37-1.63,1.5-1.32.68-2.12,1.75-2.39,3.21-2.37-1.19-4.28-2.9-5.73-5.14-.47-.83-.63-1.73-.49-2.7.01-.1.11-.17.22-.15.01,0,.03,0,.04.01,3.45,1.39,7.02,2.25,10.73,2.61Z"/>
        <path class="cls-18" d="m72.62,49.24c-1.4,1.15-2.95,2.04-4.66,2.67-1.27.42-2.58.66-3.92.7,0-.06.03-.1.07-.12.06-.04.09-.09.07-.14-.25-.64,0-1.1.79-1.37.16-.06.3-.15.39-.27l3.55-4.71c.05-.07.05-.21-.02-.36-.06-.12.04-.21.31-.27.28-.07.5-.19.68-.38l5.2-1.73c.22-.07.46.03.54.24.02.05.03.11.02.16-.22,2.39-1.22,4.25-3.01,5.59Z"/>
        <path class="cls-4" d="m120.39,43.51c1.29,1.47,2.92,2.04,4.9,1.71-.05.36,0,.7.16,1.02.24.48.11.86-.4,1.13-.57.07-1.14.18-1.69.32-.74.2-1.3.3-1.67.31-2.51.02-4.22-1.19-5.12-3.62.59-.24,1.19-.44,1.81-.61.02,0,.25-.1.71-.28.39-.15.82-.15,1.3,0Z"/>
        <path class="cls-16" d="m88.16,43.64l2.75,2.51c-.08.39-.29.69-.61.88-.13.08-.21.21-.22.34-.04.78-.3,1.76-.77,2.93-.12.29-.36,1.23-.74,2.82,0,.03-.03.24-.07.64-.03.3-.17.55-.4.74-.15.12-.26.24-.32.34-.97,1.82-1.68,3.75-2.14,5.76-.15-1.53-.04-3.04.32-4.54,1.34-4.03,2.07-8.17,2.19-12.42Z"/>
        <path class="cls-10" d="m69.87,44.98c-.18.19-.41.32-.68.38-.26.06-.36.15-.31.27.07.14.07.29.02.36l-3.55,4.71c-.09.12-.23.22-.39.27-.78.27-1.04.73-.79,1.37.02.04,0,.1-.07.14-.04.03-.06.07-.07.12-2.47.29-4.9.09-7.29-.6l-1.69-.74c.27-1.46,1.07-2.52,2.39-3.21.26-.13.8-.63,1.63-1.5.06-.06.12-.2.2-.41.07-.21.26-.29.56-.26l5.02-.2,5.02-.72Z"/>
        <path class="cls-14" d="m49.33,46.13c1.45,2.23,3.36,3.94,5.73,5.14l1.69.74c-1.01.22-1.26.63-.75,1.23.08.1.22.17.4.21.45.1.72.36.81.81.03.17.11.31.21.4.55.5,1.28.89,2.18,1.18,2.48.79,4.87.82,7.16.09.67-.21,1.34-.6,2.02-1.17.61-.51,1.21-1.02,1.81-1.53.24-.2.4-.43.49-.69.1-.28.17-.56.22-.85.03-.15-.03-.19-.18-.13l-3.11,1.28c-.25.11-.29.05-.12-.17.28-.35.3-.6.07-.75,1.7-.62,3.26-1.51,4.66-2.67.76.14,1.29-.09,1.58-.71.04-.08.07-.08.1,0,.02.07.07.13.13.18.11.08.17.2.14.29-.54,2.36-1.63,4.43-3.28,6.21-.59.63-1.25,1.14-1.98,1.53-.53.27-1.29.59-2.28.94-3.75,1.31-7.24.76-10.46-1.64,0,0-.32-.2-.92-.58-.65-.4-.97-1.02-.95-1.86,0-.11-.03-.22-.1-.29-.32-.36-.4-.35-.25.01.02.06.04.11.04.16.14.94.26,1.88.37,2.83.04.36-.02.45-.18.26-.04-.05-.12-.06-.17-.03,0,0-.01.01-.02.02-.12.18-.13.41-.05.69.11.38.12.82.02,1.31-.21-1.13-.57-2.2-1.07-3.22-1.03-2.12-2.43-3.95-4.22-5.49-.5-1.12-.66-2.27-.5-3.46.02-.17.13-.3.26-.33.16-.04.32-.01.5.07Z"/>
        <path class="cls-3" d="m.26,51.53c-.37-1.17-.35-2.33.08-3.46.25,1.03.75,1.89,1.51,2.59.11.1.27.11.37.02.09-.08.16-.18.21-.29.05-.1.06-.21.03-.34-.32-1.47-.12-1.52.6-.15.24.46.56.86.97,1.19.24.2.37.14.38-.17.08-1.41-.05-2.81-.38-4.19-.13-.56-.07-.7.17-.44.06.06.1.14.13.24.55,1.78.94,2.89,1.15,3.33.26.55.61.65,1.02.29.12-.1.19-.25.19-.4l.02-1.77c0-.13.1-.24.22-.23,0,0,0,0,0,0,1.7.06,2.43.98,2.19,2.75-.02.14-.1.28-.22.38-1.33,1.06-2.51,2.25-3.54,3.57-.25.33-.72.41-1.07.19-1.42-.89-2.54-1.85-3.35-2.88-.11-.14-.26-.22-.39-.22h-.31Z"/>
        <path class="cls-14" d="m90.91,46.15c1.04,1.3,1.64,2.57,1.77,3.82.24,2.2-.2,4.51-1.31,6.91-.78.92-1.61,1.79-2.5,2.61-.03.03-.32.21-.89.55-.35.21-.53.55-.55,1.02-.53-.24-1.09-.34-1.67-.32-.08-.01-.12-.06-.1-.14.46-2.02,1.17-3.94,2.14-5.76.06-.11.16-.22.32-.34.24-.19.37-.43.4-.74.04-.4.06-.61.07-.64.37-1.59.62-2.53.74-2.82.47-1.17.72-2.15.77-2.93,0-.14.09-.27.22-.34.32-.19.53-.48.61-.88Z"/>
        <path class="cls-18" d="m41.57,47.09c.4.02.8.02,1.19.02.42,0,.81.06,1.17.19,1.82.64,3.53,1.5,5.15,2.56,1.79,1.54,3.19,3.38,4.22,5.49-.22.7-.67.86-1.33.47-1.04-.62-2.16-1-3.35-1.16-.16-.02-.3-.08-.43-.17-.93-.67-1.97-1.07-3.12-1.21-1.81-.23-3.49-.81-5.04-1.76-.47-.29-1.47-.48-2.99-.58-.2-.01-.36-.07-.43-.16l-.88-1.07c1.54-1.74,3.49-2.61,5.85-2.63Z"/>
        <path class="cls-9" d="m35.71,49.72l.88,1.07c.07.09.23.15.43.16,1.52.1,2.51.29,2.99.58,1.55.95,3.23,1.53,5.04,1.76,1.15.14,2.19.54,3.12,1.21.13.09.27.14.43.17,1.19.15,2.31.54,3.35,1.16.66.39,1.11.23,1.33-.47.51,1.02.87,2.1,1.07,3.22l.12,1.55c-.4.37-.82.46-1.25.28-.61-.26-.93-.39-.95-.4-1.46-.35-2.93-.69-4.39-1.02-.14-.03-.28-.11-.4-.22-.5-.47-1.11-.69-1.85-.66-.96-2.1-2.56-3.65-4.8-4.66-2.61-1.18-4.7-.68-6.25,1.5-.29.41-.44.98-.44,1.71,0,.25.1.29.29.14.74-.59,1.47-1.14,2.22-1.67.8-.57,1.82-.76,3.08-.57,1.7.26,3.11,1.33,4.23,3.2-.1.37-.37.74-.83,1.1-6.52,5.23-12.29,9.61-17.31,13.15-1.61,1.14-3.28,2.18-5,3.13-.77.43-1.42.63-1.95.61-.73-.03-1.4-.3-2.03-.81-1.76-1.45-2.95-3.28-3.55-5.49-.44-1.61-1.05-3.15-1.83-4.62.77-.48,1.38-1.13,1.81-1.93.7.65,1.39,1.31,2.06,1.98.69.68,1.47,1.11,2.36,1.29.6.12,1.46.14,2.59.08,1.98-.12,3.69-.76,5.15-1.91.99-.78,3.47-2.97,7.44-6.56.11-.1.17-.25.16-.4-.21-2.94.68-5.49,2.68-7.63Z"/>
        <path class="cls-21" d="m56.75,52c2.39.69,4.82.89,7.29.6,1.34-.04,2.65-.27,3.92-.7.23.15.21.4-.07.75-.17.22-.13.28.12.17l3.11-1.28c.15-.06.21-.02.18.13-.05.29-.12.57-.22.85-.09.25-.25.48-.49.69-.6.51-1.21,1.02-1.81,1.53-.68.57-1.35.96-2.02,1.17-2.29.73-4.68.7-7.16-.09-.9-.29-1.63-.68-2.18-1.18-.1-.09-.17-.23-.21-.4-.1-.44-.37-.71-.81-.81-.17-.04-.31-.11-.4-.21-.51-.6-.26-1.01.75-1.23Z"/>
        <path class="cls-23" d="m45.65,58.1l.84,2.39c.42,2.16-.11,3.99-1.59,5.49-.38.32-.81.56-1.29.7l-1.79.24c.59-.64,1.18-1.28,1.76-1.92,2.07-2.28,2.21-4.7.41-7.26-1.12-1.87-2.53-2.93-4.23-3.2-1.25-.19-2.28,0-3.08.57-.74.53-1.48,1.09-2.22,1.67-.19.15-.29.11-.29-.14,0-.73.15-1.29.44-1.71,1.55-2.18,3.63-2.68,6.25-1.5,2.24,1,3.84,2.56,4.8,4.66Z"/>
        <path class="cls-16" d="m11.49,56.78c.22.5.53.94.92,1.33.73.72,1.09,1.59,1.07,2.61-.1-.13-.22-.22-.38-.28-.17-.06-.31-.13-.41-.22-.38-.32-.65-.27-.82.12-.07.16-.17.29-.28.35-.69.39-1.33.31-1.92-.23.55-.24.99-.61,1.31-1.09.07-.11.1-.27.09-.44-.08-.76.06-1.48.41-2.15Z"/>
        <path class="cls-3" d="m91.37,56.88c.3.05.85.31,1.64.76,3.36,1.93,6.69,3.9,10,5.9.08.05.18.18.27.35.1.18.31.25.62.18-2.72,1.93-5.59,1.97-8.6.1-2.06-1.28-4.69-2.32-7.88-3.12.02-.47.2-.81.55-1.02.57-.34.87-.52.89-.55.89-.82,1.72-1.69,2.5-2.61Z"/>
        <path class="cls-5" d="m43.97,57.74c1.8,2.56,1.66,4.98-.41,7.26-.58.64-1.17,1.28-1.76,1.92-1.17.61-1.96,1.53-2.37,2.77l-5.97,4.9c-.37-.75-.97-1.03-1.81-.84-2.03.48-3.9.87-5.61,1.19-1.03.19-2.3.49-3.83.91-1.27.35-2.56.62-3.86.81-.3.04-.64.17-1.03.37-.34.18-.7.3-1.07.36-.91.16-1.39.24-1.42.25-.87.24-1.75.43-2.64.6-.16.03-.3.11-.39.23l-.58.77c-1.94-2.2-3.24-4.59-3.92-7.17-.48-1.81-.84-4.04-1.09-6.69.4-.12.93-.12,1.57,0,1.23.22,2.46.03,3.7-.58.78,1.47,1.39,3.01,1.83,4.62.61,2.22,1.79,4.05,3.55,5.49.62.51,1.3.78,2.03.81.53.02,1.18-.18,1.95-.61,1.72-.95,3.39-2,5-3.13,5.02-3.54,10.79-7.93,17.31-13.15.46-.36.73-.73.83-1.1Z"/>
        <path class="cls-6" d="m45.65,58.1c.74-.03,1.35.19,1.85.66.12.12.26.19.4.22,1.47.33,2.93.67,4.39,1.02.02,0,.34.14.95.4.43.19.85.1,1.25-.28l.08,2.51c-2.01-.22-3.94-.74-5.78-1.56-.02,0-.29-.18-.81-.52-.43-.28-.93-.31-1.5-.07l-.84-2.39Z"/>
        <path class="cls-4" d="m4.44,59.53c.36.15.67.36.95.62.37.36.67.58.88.66,1.14.45,2.28.33,3.4-.34.58.55,1.22.63,1.92.23.11-.06.21-.19.28-.35.17-.4.45-.44.82-.12.1.09.23.16.41.22.15.05.28.15.38.28l-.2,2.15c-.43.8-1.04,1.45-1.81,1.93-1.24.61-2.47.8-3.7.58-.65-.12-1.17-.12-1.57,0-.58-.49-1.12-1.02-1.63-1.58-.76-.83-.92-1.78-.48-2.84.19-.46.31-.94.36-1.44Z"/>
        <path class="cls-3" d="m54.56,62.63c.2,1.03.18,2.2-.05,3.51-.04.23-.24.41-.49.43l-2.55.25c-2.16-.14-4.3-.36-6.44-.65-.11-.02-.16-.08-.14-.21,1.48-1.51,2.01-3.34,1.59-5.49.57-.24,1.07-.22,1.5.07.52.34.79.51.81.52,1.84.82,3.77,1.34,5.78,1.56Z"/>
        <path class="cls-16" d="m44.89,65.98c-.02.12.03.19.14.21,2.14.29,4.29.51,6.44.65.19.09.28.24.26.46-.08.27-.24.48-.5.62-2.61-.02-5.16-.43-7.64-1.23.48-.14.92-.37,1.29-.7Z"/>
        <path class="cls-14" d="m43.6,66.68c2.48.8,5.03,1.21,7.64,1.23-2.73,2.79-5.98,3.48-9.76,2.07-.23-.09-.48-.11-.74-.06-.24-.64-.68-.72-1.31-.24.41-1.24,1.2-2.16,2.37-2.77l1.79-.24Z"/>
        <path class="cls-2" d="m33.46,74.58c-1.61,1.27-3.32,2.39-5.14,3.34-.13-.05-.2-.11-.21-.19-.01-.09-.06-.17-.12-.18l-1.61-.28c-.21-.04-.36-.04-.45,0-1.87.53-3.08.89-3.62,1.1-1.15.43-2.24.65-3.29.66-.59,0-1.15.09-1.67.26-.55.18-1.11.31-1.69.38-.56.08-.99.22-1.28.44-.38.28-.71.62-.99,1.01-.84-.5-1.56-1.13-2.17-1.89l.58-.77c.09-.12.23-.2.39-.23.89-.16,1.77-.36,2.64-.6.04,0,.51-.09,1.42-.25.37-.06.73-.18,1.07-.36.39-.2.74-.33,1.03-.37,1.31-.19,2.59-.46,3.86-.81,1.52-.42,2.8-.72,3.83-.91,1.71-.32,3.58-.71,5.61-1.19.84-.2,1.44.08,1.81.84Z"/>
        <path class="cls-15" d="m28.33,77.92c-2.52,1.52-5.18,2.73-7.99,3.62-2.39.76-4.71.62-6.96-.42.28-.39.61-.73.99-1.01.29-.22.72-.36,1.28-.44.58-.08,1.14-.2,1.69-.38.52-.17,1.08-.25,1.67-.26,1.05-.02,2.15-.24,3.29-.66.54-.2,1.75-.57,3.62-1.1.1-.03.25-.03.45,0l1.61.28c.06.01.11.08.12.18,0,.07.08.14.21.19Z"/>
        <path class="cls-20" d="m85.66,60.6c-.15-1.53-.04-3.04.32-4.54-.32-.13-.4-.37-.24-.72-.22.16-.37.08-.46-.24-.32-1.18-.57-2.12-.76-2.84-.29-1.13-.64-2.04-1.03-2.73-.87-1.51-1.92-2.9-3.15-4.15-.11-.12-.19-.1-.21.06-.11.54-.13,1.07-.06,1.6.13.99.19,1.59.18,1.8-.21,4.8-2.16,8.75-5.85,11.85-4.87,4.09-10.32,5.1-16.36,3.05-.24-.08-.58-.26-1.01-.54-.37-.24-.73-.38-1.09-.43-.72-.09-1.07.26-1.05,1.06l.07,2.82c0,.11-.12.21-.28.23l-2.93.4c-.08.27-.24.48-.5.62-2.73,2.79-5.98,3.48-9.76,2.07-.23-.09-.48-.11-.74-.06v26.63c-.32,2.86-.18,5.68.44,8.48.75,3.74,2.6,7.15,5.54,10.24,2.92,3.06,6.21,5.17,9.87,6.34,2.98.96,6.12,1.22,9.44.78,6.42-.84,11.69-4.11,15.8-9.82,1.85-2.57,2.99-5.17,3.42-7.79.47-3.01.59-6.04.36-9.08l.14-34.97c-.08-.01-.12-.06-.1-.14Zm-.41,33.43s0-.02-.01-.03c0,0,.01.02.01.03Zm-.03-.05s-.02-.01-.02-.02c0,0,.02.01.02.02Zm-.05-.03s-.02,0-.03,0c.01,0,.02,0,.03,0Zm-.08-.01s.01,0,.02,0c-.02,0-.04,0-.05,0,.01,0,.02,0,.04,0Zm-44.01-1.67s-.03,0-.04.02c.01,0,.03-.02.04-.02Zm-.09.06s.01,0,.02-.01c-.01.02-.03.04-.03.07,0-.02,0-.04.01-.05Z"/>
      </g>
      <text class="cls-19" transform="translate(92.75 102.33)"><tspan class="cls-11"><tspan x="0" y="0">FOREX</tspan></tspan><tspan class="cls-24"><tspan x="162.26" y="25.99"> </tspan></tspan></text>
      <text class="cls-7" transform="translate(95.17 143.31)"><tspan x="0" y="0">Artifcial Intelligence</tspan></text>
    </g>
  </g>
</svg>